<?xml version="1.0" encoding="utf-8"?>
<!-- Generator: Adobe Illustrator 18.1.1, SVG Export Plug-In . SVG Version: 6.00 Build 0)  -->
<svg version="1.1" id="Layer_1" xmlns="http://www.w3.org/2000/svg" xmlns:xlink="http://www.w3.org/1999/xlink" x="0px" y="0px"
	 width="256px" height="256px" viewBox="0 0 256 256" style="enable-background:new 0 0 256 256;" xml:space="preserve">
<style type="text/css">
	.st0{fill:#3B3A33;}
</style>
<g>
	<path class="st0" d="M38.1,107l0.3-0.3c0.4-1.6,1.1-6.9-4.1-12c-5.2-5-11.3-5.2-13.2-5.1l-0.1,0.1c0,1.8,0.3,7.9,5.3,13
		C31.4,108,36.5,107.4,38.1,107z"/>
	<path class="st0" d="M142.3,169.5c3.6-3.7,3.8-8.1,3.8-9.4l-0.1,0c-1.3-0.1-5.8,0.1-9.5,3.7c-0.7,0.7-1.2,1.3-1.6,2v-14
		c3.2,2.8,7.3,4.4,11.9,4.4h48.5c6.4,0,12-3.3,15.2-8.3h10.6c10,0,18.1-8.1,18.1-18.1v-16.8c1.7,0.1,4.6-0.3,7.4-3.2
		c3.6-3.7,3.8-8.1,3.8-9.4l0,0c-1.3-0.1-5.8,0.1-9.6,3.7c-0.6,0.6-1.2,1.3-1.6,1.9v-1.1c0-1.7-1.4-3.1-3.1-3.1
		c-1.7,0-3.1,1.4-3.1,3.1v12.9c-0.1-0.1-0.2-0.2-0.2-0.3c-3.8-3.6-8.2-3.8-9.6-3.7l0,0.1c0,1.3,0.2,5.7,3.8,9.4c2.2,2.2,4.4,3,6,3.2
		v3.3c0,6.5-5.3,11.9-11.9,11.9h-8.1c0.2-0.9,0.3-1.8,0.3-2.8c0.2-1.4,0.3-4.5-2.7-7.4c-3.4-3.3-7.4-3.4-8.6-3.3l0,0
		c0,1.2,0.2,5.1,3.4,8.5c0.6,0.6,1.2,1.1,1.7,1.5c0,0,0,0,0,0c0,6.5-5.3,11.9-11.9,11.9h-11.4c2.8-3.2,4.4-7.3,4.4-11.9v-23.8
		c2.2,0.2,6.5,0,10.8-4.4c5-5.2,5.3-11.2,5.3-13l-0.1-0.1c-1.8-0.1-8,0.1-13.2,5.1c-1.2,1.2-2.1,2.4-2.8,3.6v-18c0-0.2,0-0.3,0-0.5
		c0,0,0-0.2,0-0.4c1.2,0.2,4.4,0.4,7.5-2.8c3.3-3.4,3.5-7.3,3.4-8.5l0,0c-1.2,0-5.2,0.1-8.6,3.3c-1,1-1.7,2-2.1,3
		c0.4-2.4,1.2-5,3-7.2c2.4-2.8,6.2-4.2,11.3-4.2c1.7,0,3.1-1.4,3.1-3.1s-1.4-3.1-3.1-3.1c-7,0-12.4,2.1-16.1,6.4
		c-5.6,6.5-4.8,15.7-4.6,17.4v8.4c-0.7-1.5-1.7-3.1-3.3-4.6c-5.2-5-11.3-5.2-13.2-5.1l-0.1,0.1c0,1.8,0.3,7.9,5.3,13
		c4.6,4.8,9.3,4.7,11.3,4.4V121c-0.8-1.2-1.8-2.5-3-3.7c-6.4-6.2-14.1-6.4-16.4-6.3l-0.1,0.1c0,2.3,0.3,9.8,6.5,16.2
		c5,5.2,10.1,5.7,12.9,5.5v5.3c0,6.5-5.3,11.9-11.9,11.9h-23.4c-6.3,0-11.5-4.9-11.8-11.1l0.1,0.1c1.1,0.2,4.8,0.6,8.5-3.1
		c3.6-3.7,3.8-8.1,3.8-9.4l-0.1,0c-1.3-0.1-5.8,0.1-9.5,3.7c-1.7,1.6-2.5,3.3-2.9,4.8v-10.7c0.4,0.1,0.7,0.2,1.1,0.2
		c10,0,18.1-8.1,18.1-18.1v-16c1.6,0.2,4.7-0.1,7.7-3.2c3.6-3.7,3.8-8.1,3.8-9.4l0,0c-1.3-0.1-5.8,0.1-9.5,3.7
		c-0.9,0.8-1.5,1.7-1.9,2.5V56.3c1.7,0.3,6.7,0.8,11.7-4.3c5-5.2,5.3-11.2,5.3-13l-0.1-0.1c-1.8-0.1-8,0.1-13.2,5.1
		c-2,1.9-3.1,3.8-3.7,5.6V32.5c0-1.7-1.4-3.1-3.1-3.1c-1.2,0-2.2,0.7-2.8,1.7c-0.6-2.6-2-5.7-5.1-8.7c-6.4-6.2-14.1-6.4-16.4-6.3
		l-0.1,0.1c0,2.3,0.3,9.8,6.5,16.2c6.2,6.4,12.6,5.7,14.6,5.3l0,0v23.1c-0.7-1.5-1.7-3.1-3.3-4.6c-5.2-5-11.3-5.2-13.2-5.1l-0.1,0.1
		c0,1.8,0.3,7.9,5.3,13c4.6,4.8,9.3,4.7,11.3,4.4v37.8c0,6.5-5.3,11.9-11.9,11.9c-0.4,0-0.8,0.1-1.1,0.2v-5.3c0,0,0,0,0-0.1v-9.3
		l0,0c1,0.2,4.4,0.6,7.6-2.8c3.2-3.3,3.4-7.3,3.4-8.4l0,0c-1.2,0-5.2,0.1-8.5,3.3c-1.4,1.3-2.1,2.7-2.5,3.9v-19
		c0-10-8.1-18.1-18.1-18.1h-3.3c-0.1-1.7-0.7-4.1-3.1-6.4c-3.7-3.5-8-3.7-9.3-3.6l0,0c0,1.3,0.2,5.6,3.7,9.2
		c0.3,0.3,0.5,0.5,0.8,0.7H95.1c-0.5-2.7-1.9-5.9-5.2-9.1c-6.4-6.2-14.1-6.4-16.4-6.3l-0.1,0.1c0,2.3,0.3,9.8,6.5,16.2
		c5.8,6,11.8,5.8,14.2,5.4h22.6c6.5,0,11.9,5.3,11.9,11.9v8.9c-0.8-2.2-2.1-4.6-4.6-7c-6.4-6.2-14.1-6.4-16.4-6.3l-0.1,0.1
		c0,2.3,0.3,9.8,6.5,16.2c6.1,6.4,12.4,5.7,14.5,5.3V128c0,0,0,0,0,0v9.8c-0.7-1.4-1.7-2.9-3.2-4.4c-5.2-5-11.3-5.2-13.2-5.1
		l-0.1,0.1c0,1.8,0.3,7.9,5.3,13c4.5,4.7,9.2,4.7,11.2,4.4v7.2c0,6.5-5.3,11.9-11.9,11.9h-11c2.8-3.2,4.4-7.3,4.4-11.9v-39
		c1.5,0.2,4.6,0.1,7.7-3.1c3.5-3.6,3.7-7.8,3.7-9.1l0,0c-1.3-0.1-5.6,0.1-9.2,3.6c-1,1-1.7,2-2.2,2.9v-5.9c0-9.7-7.6-17.6-17.1-18.1
		c-0.5-1-1.2-2.1-2.3-3.2c-3.7-3.5-8-3.7-9.3-3.6l0,0c0,1.3,0.2,5.6,3.7,9.2c1.7,1.8,3.5,2.6,4.9,2.9c0.5,0.5,1.3,0.8,2,0.8
		c6.5,0,11.9,5.3,11.9,11.9v17.3c-0.7-1.4-1.6-2.8-3.1-4.2c-5.2-5-11.3-5.2-13.2-5.1l-0.1,0.1c0,1.8,0.3,7.9,5.3,13
		c4.5,4.6,9,4.7,11.1,4.4v17.8c-0.7-2-2-4.1-4.1-6.2c-5.9-5.7-12.8-5.8-14.9-5.8l-0.1,0.1c0,2.1,0.3,8.9,5.9,14.7
		c5.5,5.7,11.2,5.2,13.1,4.9c-0.2,6.4-5.4,11.5-11.8,11.5H81.8h-14v-5c1.6,0.3,5.5,0.3,9.3-3.6c4.1-4.3,4.4-9.3,4.4-10.8l-0.1-0.1
		c-1.5-0.1-6.6,0.1-10.9,4.2c-1.3,1.3-2.2,2.6-2.7,3.8v-25.7c1.5,0.2,4.6,0.1,7.7-3.1c3.5-3.6,3.7-7.8,3.7-9.1l0,0
		c-1.3-0.1-5.6,0.1-9.2,3.6c-1,1-1.7,1.9-2.1,2.8c0.3-6.3,5.5-11.3,11.8-11.3c1.7,0,3.1-1.4,3.1-3.1c0-1.7-1.4-3.1-3.1-3.1
		c-10,0-18.1,8.1-18.1,18.1v10c-0.4-1-1.1-2.1-2.3-3.2c-3.4-3.3-7.5-3.4-8.7-3.4l0,0c0,1.2,0.2,5.2,3.5,8.6c3.1,3.2,6.3,3.1,7.5,2.9
		v27.4h-4.7c-5.7,0-10.4-4-11.6-9.3l0.1,0.1c1.3,0.3,5.6,0.8,9.7-3.5c4.1-4.3,4.4-9.3,4.4-10.8l-0.1-0.1c-1.5-0.1-6.6,0.1-10.9,4.2
		c-2.3,2.3-3.2,4.6-3.5,6.5v-38.3c0,0.2,0.1,0.4,0.1,0.6l0.3,0.3c1.6,0.3,6.7,0.9,11.7-4.3c5-5.2,5.3-11.2,5.3-13l-0.1-0.1
		c-1.8-0.1-8,0.1-13.2,5.1c-2.7,2.7-3.8,5.4-4.2,7.6V86.7c0-1.7-1.4-3.1-3.1-3.1c-1.7,0-3.1,1.4-3.1,3.1v39.7
		c-0.8-1.9-2.1-3.8-4.1-5.8c-6.4-6.2-14.1-6.4-16.4-6.3l-0.1,0.1c0,2.3,0.3,9.8,6.5,16.2c5.7,5.9,11.6,5.8,14,5.4V153
		c0,4.5,1.7,8.7,4.4,11.9H28.5c-5.4,0-10-3.6-11.4-8.6c2.1,0.3,6.6,0.1,10.9-4.4c5-5.2,5.3-11.2,5.3-13l-0.1-0.1
		c-1.9-0.1-8,0.1-13.2,5.1c-2.6,2.5-3.7,5-4.1,7.2c-0.6-0.7-1.4-1.2-2.4-1.2c-0.5,0-1,0.1-1.4,0.4c-0.3-1.4-1-3.1-2.7-4.7
		c-3.4-3.3-7.5-3.4-8.7-3.4l0,0c0,1.2,0.2,5.2,3.5,8.6c2.3,2.4,4.7,2.9,6.3,3c0.4,9.6,8.4,17.3,18.1,17.3h28.4h4.7v2
		c0,0.6,0,1.2,0.1,1.8c-2.9-1.9-5.9-2-6.9-1.9l0,0c0,1.2,0.2,5.2,3.5,8.6c3,3.1,6.1,3.1,7.4,2.9c2.9,3.6,7.1,6,11.9,6.6
		c-1.6,0.4-3.6,1.3-5.5,3.3c-3.9,4-4.1,8.7-4.1,10.1l0.1,0.1c1.4,0.1,6.2-0.1,10.3-4c4.1-3.9,3.5-8.1,3.2-9.3l0,0h19.5
		c-0.9,0.4-1.9,1.1-2.9,2.2c-3.3,3.4-3.5,7.4-3.5,8.6l0,0c1.2,0.1,5.2-0.1,8.7-3.4c3-2.9,3-5.9,2.8-7.3c6,0.6,10.7,5.7,10.7,11.8
		v18.7c0,6.5-5.3,11.9-11.9,11.9c-1.7,0-3.1,1.4-3.1,3.1s1.4,3.1,3.1,3.1c10,0,18.1-8.1,18.1-18.1v-18.7c0-2.8-0.6-5.4-1.7-7.7
		c7.9-1.9,13.8-9.1,13.8-17.6v-5.1C136.6,172.8,139.5,172.5,142.3,169.5z M116.9,189.7c-3.2-2.9-7.5-4.7-12.1-4.7h-0.1c0,0,0,0,0,0
		H86.1c0.9-0.4,1.8-1.1,2.7-2c3.2-3.4,3.4-7.3,3.4-8.4l0,0c-1.2-0.1-5.2,0.1-8.5,3.3c-2.9,2.8-3,5.8-2.7,7.2h-1.2
		c-6.5,0-11.9-5.3-11.9-11.9v-2h14h10.4h24.7c4.5,0,8.7-1.7,11.9-4.4v11.2C128.7,184.4,123.4,189.7,116.9,189.7z"/>
	<path class="st0" d="M154.5,32.4c1,0.2,4.4,0.6,7.6-2.8c3.2-3.3,3.4-7.3,3.4-8.4l0,0c-1.2,0-5.2,0.1-8.5,3.3
		c-3.4,3.3-2.9,6.7-2.6,7.7L154.5,32.4z"/>
	<path class="st0" d="M255.4,137.7L255.4,137.7c-1.4-0.1-5.8,0-9.6,3.7c-0.6,0.5-1,1.1-1.4,1.6c-0.5-1.2-1.6-2-2.9-2
		c-1.7,0-3.1,1.4-3.1,3.1v18.1c-0.6-1.5-1.7-3.2-3.4-4.8c-5.1-5-11.2-5.1-13.1-5.1l-0.1,0.1c0,1.8,0.3,7.8,5.2,12.9
		c4.6,4.8,9.4,4.6,11.3,4.3c-0.3,6.3-5.5,11.3-11.8,11.3h-28.9c1-0.6,2.1-1.4,3.2-2.5c4.7-4.8,4.9-10.5,4.9-12.2l-0.1-0.1
		c-1.7-0.1-7.5,0.1-12.3,4.8c-4,3.8-4.2,7.8-4,10H176c-6.1,0-11.2-4.7-11.8-10.6h20.2c0.9,0,1.7-0.4,2.3-1c1.5-0.1,3.5-0.7,5.4-2.8
		c3.1-3.2,3.3-7,3.3-8.1l0,0c-1.1,0-5,0.1-8.2,3.2c-0.9,0.9-1.5,1.8-1.9,2.6c-0.3-0.1-0.5-0.1-0.8-0.1h-25c-10,0-18.1,8.1-18.1,18.1
		v39.7c0,10,8.1,18.1,18.1,18.1c1.7,0,3.1-1.4,3.1-3.1c0-1.7-1.4-3.1-3.1-3.1c-6.5,0-11.9-5.3-11.9-11.9v-20.3
		c1.1,0.1,3.1-0.1,5.1-2.1c2.4-2.5,2.5-5.3,2.5-6.2l0,0c-0.9,0-3.8,0-6.3,2.4c-0.6,0.5-1,1.1-1.3,1.6v-7.8c1.5,0.1,3.9-0.3,6.2-2.8
		c3.1-3.2,3.3-7,3.3-8.1l0,0c-1.2,0-5,0.1-8.2,3.2c-0.5,0.5-0.9,1-1.3,1.5v-1c0-6,4.5-11,10.4-11.8c0.7,9.4,8.5,16.7,18,16.7h27.2
		c-0.3,2-0.2,6.2,4.1,10.3c4.8,4.7,10.5,4.9,12.2,4.9l0.1-0.1c0.1-1.7-0.1-7.5-4.8-12.3c-1.3-1.3-2.6-2.2-3.8-2.8h15.7
		c10,0,18.1-8.1,18.1-18.1v-18.7c1.7,0,4.4-0.6,7-3.3C255.2,143.4,255.4,139.1,255.4,137.7z"/>
</g>
<g>
</g>
<g>
</g>
<g>
</g>
<g>
</g>
<g>
</g>
<g>
</g>
<g>
</g>
<g>
</g>
<g>
</g>
<g>
</g>
<g>
</g>
<g>
</g>
<g>
</g>
<g>
</g>
<g>
</g>
</svg>
